/* XPM */
static char * away_xpm[] = {
"16 16 26 1",
" 	c None",
".	c #80E6F2",
"+	c #015F8E",
"@	c #1895A3",
"#	c #999957",
"$	c #BABA3A",
"%	c #FBFB01",
"&	c #EEF308",
"*	c #FAFA01",
"=	c #F0F405",
"-	c #229CAA",
";	c #41B5C2",
">	c #F8F902",
",	c #3C846B",
"'	c #31A8B6",
")	c #74DCE9",
"!	c #F2F502",
"~	c #76A749",
"{	c #1A96A4",
"]	c #54C3D0",
"^	c #F0F404",
"/	c #B2CD26",
"(	c #F0F403",
"_	c #CADB18",
":	c #CEDF16",
"<	c #BDD420",
"   ..++++++++   ",
"   .@.#$$$%&+   ",
"   .@@..$%%&+   ",
"   .@@@@..%%+   ",
"   .@@@@@.**+   ",
"   .@@@@@.==+   ",
"   .@@@@@.%*+   ",
"   .@@@@@.%%+   ",
"   .@@@-;.>>,   ",
"   .@@@').!!~   ",
"   .@@@{].^^/   ",
"   ..@@@@.((_   ",
"    ..@@@.::<   ",
"      ..@.      ",
"        ..      ",
"                "};
