/* XPM */
static char * ffc_xpm[] = {
"16 16 25 1",
" 	c None",
".	c #99F475",
"+	c #2D8E0C",
"@	c #4EB72C",
"#	c #999957",
"$	c #A0A051",
"%	c #BBBB3D",
"&	c #000000",
"*	c #B7B741",
"=	c #FFFFFF",
"-	c #4CBC28",
";	c #48CB1D",
">	c #FAFA02",
",	c #45D217",
"'	c #40E20B",
")	c #FDFE00",
"!	c #BCD904",
"~	c #46D019",
"{	c #FBFB01",
"]	c #FAFA01",
"^	c #FBFB00",
"/	c #FCFC00",
"(	c #FDFD00",
"_	c #FFFF00",
":	c #EFEF7C",
"   ..++++++++   ",
"   .@.#$%&&&&&& ",
"   .@@.*&======&",
"   .@@@.&=&&&&=&",
"   .@@@@.======&",
"   .@@@@.=&&&&=&",
"   .@@@@.======&",
"   .@@@@.=&&&&=&",
"   .@@@@.======&",
"   .@@-;.&=&&&&>",
"   .@@,'.=&)!>> ",
"   .@@@~.&{)!>> ",
"   .@@@@.!!!!]> ",
"    .@@@.^/)(]> ",
"     .@@.___]>  ",
"      ...:__]   "};
