/* XPM */
static char * invisible_xpm[] = {
"16 16 69 1",
" 	c None",
".	c #897900",
"+	c #60530E",
"@	c #FBF69C",
"#	c #F8EF52",
"$	c #F4EA33",
"%	c #F2E839",
"&	c #EFE868",
"*	c #EAEAEA",
"=	c #FAF370",
"-	c #F9F385",
";	c #BDB744",
">	c #DAD022",
",	c #DBDBDB",
"'	c #FBF694",
")	c #F9F384",
"!	c #A1A1A0",
"~	c #A6A6A5",
"{	c #8E8E8D",
"]	c #C0B940",
"^	c #D2CA3A",
"/	c #DADADA",
"(	c #F8EF4A",
"_	c #A0A09F",
":	c #A4A4A3",
"<	c #868685",
"[	c #EDE210",
"}	c #9A9A9A",
"|	c #F4EA2F",
"1	c #A3A3A2",
"2	c #D7D7D6",
"3	c #E5E5E4",
"4	c #F6E900",
"5	c #909090",
"6	c #989898",
"7	c #F1E844",
"8	c #8B8B8A",
"9	c #8D8D8C",
"0	c #F3E815",
"a	c #767676",
"b	c #838383",
"c	c #E6E6E6",
"d	c #EDE785",
"e	c #CCC332",
"f	c #898981",
"g	c #F9F050",
"h	c #F0E858",
"i	c #6B6B6B",
"j	c #808080",
"k	c #CBC335",
"l	c #D0C830",
"m	c #F7ED31",
"n	c #858585",
"o	c #EBEBEB",
"p	c #C4BF5C",
"q	c #E4D91D",
"r	c #F4E704",
"s	c #F3E715",
"t	c #EFE75D",
"u	c #8C8C8C",
"v	c #8D8D8D",
"w	c #DCDCDC",
"x	c #848484",
"y	c #868686",
"z	c #9E9E9E",
"A	c #6E6E6E",
"B	c #8E8E8E",
"C	c #9B9B9B",
"D	c #828282",
"                ",
"    .+++.       ",
"   .@#$%&.*     ",
"  .=-+++;>.,    ",
" .').!~{.]^./   ",
" +(+!_:{<+[+},  ",
" +|+1:_23+4+56* ",
" +7+892  +0+abc ",
" .de.f3 .gh.ijc ",
"  .kl+++gm.nabc ",
"  o.pqrst.6uv6* ",
"   w.+++.xuy6,  ",
"    ,zzjAaB6/   ",
"     wCyDb6,    ",
"      occc*     ",
"                "};
