/* XPM */
static char * na_xpm[] = {
"16 16 14 1",
" 	c None",
".	c #5EABFF",
"+	c #024868",
"@	c #3B8FF7",
"#	c #000000",
"$	c #00273B",
"%	c #004263",
"&	c #161616",
"*	c #B5D5FF",
"=	c #004C71",
"-	c #EAF3FF",
";	c #004F76",
">	c #00517A",
",	c #005783",
"   ..++++++++   ",
"   .@.#####$+   ",
"   .@@..##$$+   ",
"   .@@@@..$%+   ",
"   .&&&&@.%%+   ",
"   .*@@@&.%=+   ",
"   .***@&.==+   ",
"   .*--**.==+   ",
"   .@**-*.;;+   ",
"   .@@@**.;=+   ",
"   .@@@@@.;>+   ",
"   ..@@@@.,,+   ",
"    ..@@@.+++   ",
"      ..@.      ",
"        ..      ",
"                "};
