/* XPM */
static char * away_xpm[] = {
"16 16 6 1",
" 	c None",
".	c #000000",
"+	c #0000FF",
"@	c #00CF00",
"#	c #606060",
"$	c #FFFFFF",
"     .......... ",
"    ..+.@@@@@@.#",
"   ..++.@@@@@@.#",
"  ..+++.@@@@@@.#",
" ..++++.@@@@@@.#",
"..+++++.@@@@@@.#",
".++++++.@@@@...#",
".++++++.....$$.#",
".++++++..$$$$$.#",
".++++..$$$$$$$$.",
".++++.$$$$$$$$$.",
".++++.$$$$$$$$$.",
".++++.$$$$$$$$..",
".+++++.$$$$$...#",
".......$$......#",
" #####...#######"};
