/* XPM */
static char * dnd_xpm[] = {
"16 16 8 1",
" 	c None",
".	c #000000",
"+	c #FFFF00",
"@	c #00CF00",
"#	c #606060",
"$	c #FF0000",
"%	c #FFFFFF",
"&	c #0000FF",
"     .......... ",
"    ..+.@@@@@@.#",
"   ..++.@@@@@@.#",
"  ..+++.@@@@@@.#",
" ..++++.@@@@@@.#",
"..+++++......@.#",
".++++++..$$$...#",
".+++++..%$$$%..#",
".+++++.$$%$%$$.#",
".+++++.$$$%$$$.#",
".+++++.$$%$%$$.#",
".+++++..%$$$%..#",
".++++++..$$$...#",
".++++++......&.#",
"...............#",
" ###############"};
