/* XPM */
static char * invisible_xpm[] = {
"16 16 7 1",
" 	c None",
".	c #000000",
"+	c #FF0000",
"@	c #0000FF",
"#	c #606060",
"$	c #FFFFFF",
"%	c #00CF00",
"     .......... ",
"    ..+.@@@@@@.#",
"   ..++.@@@@@@.#",
"  ..+++.@@@@@@.#",
" ..++++.@@@@@@.#",
"..+++++.@@@@@@.#",
".++++++.@@@@@@.#",
".++++..........#",
".++..$$....$$..#",
".+.$$$..$...$$$.",
".+.$$$..$...$$$.",
".+.$$$......$$$.",
".++..$$....$$..#",
".++++........%.#",
"...............#",
" ###############"};
