/* XPM */
static char * na_xpm[] = {
"16 16 7 1",
" 	c None",
".	c #000000",
"+	c #0000FF",
"@	c #FFFF00",
"#	c #606060",
"$	c #FF0000",
"%	c #FFFFFF",
"     .......... ",
"    ..+.@@@@@@.#",
"   ..++.@@@@@@.#",
"  ..+++.@@@@@@.#",
" ..++++.@@@@@@.#",
"..+++++.@@@@@@.#",
".++++$$$$$$$$$$#",
".+++$%%%%%%%%%%$",
".+++$.%.%%.%...$",
".+++$...%%.%.%.$",
".+++$...%.%%...$",
".+++$.%.%.%%.%.$",
".+++$%%%%%%%%%%$",
".++++$$$$$$$$$$#",
"...............#",
" ###############"};
