/* XPM */
static char * occ_xpm[] = {
"16 16 6 1",
" 	c None",
".	c #000000",
"+	c #FFFF00",
"@	c #FF0000",
"#	c #606060",
"$	c #FFFFFF",
"     .......... ",
"    ..+.@@@@@@.#",
"   ..++.@@@@@@.#",
"  ..+++.@@@@@@.#",
" ..++++..@@@@@.#",
"..++++.$$.@@@@.#",
".+++++.$$.@@@@.#",
".+++++.$$......#",
".+++++.$$.$....#",
".+++++.$$.$.$..#",
".+++++.$$$$$$..#",
".+++++.$$$$$$..#",
".+++++.$$$$$$..#",
".+++++.$$$$$...#",
"........$$$$...#",
" ######......###"};
