/* XPM */
static char * offline_xpm[] = {
"16 16 6 1",
" 	c None",
".	c #000000",
"+	c #EAEAEA",
"@	c #FFFFFF",
"#	c #606060",
"$	c #B2B2B2",
"     .......... ",
"    ..+.@@@@@@.#",
"   ..++.@@@@@@.#",
"  ..+++.@@@@@@.#",
" ..++++.@@@@@@.#",
"..+++++.@@@@@@.#",
".++++++.@@@@@@.#",
".++++++........#",
".++++++.$$$$$$.#",
".++++++.$$$$$$.#",
".++++++.$$$$$$.#",
".++++++.$$$$$$.#",
".++++++.$$$$$$.#",
".++++++.$$$$$$.#",
"...............#",
" ###############"};
