/* XPM */
static char * away_xpm[] = {
"16 16 11 1",
" 	c None",
".	c #474747",
"+	c #000000",
"@	c #AFAFAF",
"#	c #FFFFFF",
"$	c #939393",
"%	c #FFFF00",
"&	c #BABABA",
"*	c #C4C4C4",
"=	c #D3D3D3",
"-	c #C0C0C0",
"       .+.@     ",
"      ++++.     ",
"      +#$#+     ",
"      +++++@    ",
"      +%%%+.    ",
"     +++++++++  ",
"    ++&&&*==+%+ ",
"   +%+***==&+%+ ",
"   +%+&====&+++ ",
"    ++&====&++  ",
"   -++&*&&&*++  ",
"  +%++++++++++  ",
" +%%%+$###$%%%+ ",
" +%%%%+###+%%%%+",
" +%%%%+++++%%%+ ",
"  +++++    ++.  "};
