/* XPM */
static char * dnd_xpm[] = {
"16 16 10 1",
" 	c None",
".	c #474747",
"+	c #000000",
"@	c #AFAFAF",
"#	c #FFFFFF",
"$	c #939393",
"%	c #800000",
"&	c #FFFF00",
"*	c #F80000",
"=	c #F8FCF8",
"       .+.@     ",
"      ++++.     ",
"      +#$#+     ",
"      +++++@    ",
"      %%&%%.    ",
"     %**%**%@   ",
"    %*=***=*%   ",
"    %**=*=**%@  ",
"    +%**=**%+@  ",
"    %**=*=**%.  ",
"   +%*=***=*%+  ",
"  +&+%**%**%++  ",
" +&&&+%%#%%&&&+ ",
" +&&&&+###+&&&&+",
" +&&&&+++++&&&+ ",
"  +++++    ++.  "};
