/* XPM */
static char * invisible_xpm[] = {
"16 16 46 1",
" 	c None",
".	c #99F475",
"+	c #2D8E0C",
"@	c #4EB72C",
"#	c #999957",
"$	c #A0A051",
"%	c #BBBB3D",
"&	c #CDCD2E",
"*	c #D2D228",
"=	c #4F9C12",
"-	c #B7B741",
";	c #DBDB24",
">	c #E1E121",
",	c #E3E321",
"'	c #E4E421",
")	c #D9D926",
"!	c #E2E221",
"~	c #E8E817",
"{	c #80BA07",
"]	c #E8E81B",
"^	c #EBEB15",
"/	c #F6F603",
"(	c #BCD904",
"_	c #FAFA02",
":	c #E5E51F",
"<	c #FFFF00",
"[	c #EEF400",
"}	c #C2DB02",
"|	c #EDED15",
"1	c #FDFE00",
"2	c #C6DE03",
"3	c #F6F609",
"4	c #F7F705",
"5	c #4CBC28",
"6	c #48CB1D",
"7	c #F4F408",
"8	c #FBFB01",
"9	c #45D217",
"0	c #40E20B",
"a	c #46D019",
"b	c #FAFA04",
"c	c #FAFA01",
"d	c #FBFB00",
"e	c #FCFC00",
"f	c #FDFD00",
"g	c #EFEF7C",
"   ..++++++++   ",
"   .@.#$%&*=+   ",
"   .@@.-;>,'+   ",
"   .@@@.)!'~{   ",
"   .@@@@.]^/(_  ",
"   .@@@@.:<[}_  ",
"   .@@@@.|<12_  ",
"   .@@@@.311(__ ",
"   .@@@@.411(__ ",
"   .@@56.781(___",
"   .@@90.8_1(__ ",
"   .@@@a.b81(__ ",
"   .@@@@.((((c_ ",
"    .@@@.de1fc_ ",
"     .@@.<<<c_  ",
"      ...g<<c   "};
