/* XPM */
static char * sms_xpm[] = {
"16 16 11 1",
" 	c None",
".	c #000000",
"+	c #4A4A4A",
"@	c #1A1A1A",
"#	c #808080",
"$	c #008080",
"%	c #323232",
"&	c #0E0E0E",
"*	c #FFFF00",
"=	c #FFFFFF",
"-	c #C0C0C0",
"              & ",
"     +@+      & ",
"    #&$@      & ",
"    #&$&  +%&&& ",
"&&&&&.$&&&&&&.&+",
".*=*=.$.=.====.+",
".=*=*.$.*.****.+",
".*=*=...=......+",
".=*=*=*=*.=#=#.+",
".*=##*##=.#=#=.+",
".=*=*=*=*.=#=#.+",
".*=###=##.#=#=.+",
".=*=*=*=*.=#=#.+",
".*=*=*=*=.#=#=.+",
"..........-##-.+",
"         ......+"};
