/* XPM */
static char * away_xpm[] = {
"16 16 7 1",
" 	c None",
".	c #1C8C00",
"+	c #00FF00",
"@	c #E0FFE0",
"#	c #474747",
"$	c #C0C0C0",
"%	c #FFFFFF",
"     ... ...    ",
"    .+@@.+@..   ",
"    .@++.@#$#   ",
"  ...@++##$%#.. ",
" .+@@..#$%%%$.@.",
" .@+##$%%%%%%#+.",
" ..#$%%%%%%%%$..",
" #$%%%%%%%%%%%# ",
" .#%%%%%%%%%%%$.",
" .+$%%%%%%%%$#..",
" .@#%%%%%%$#.++.",
"  .#$%%%$##@... ",
"    #%$##@++.   ",
"    .#.+.@++.   ",
"     ... ...    ",
"                "};
