/* XPM */
static char * dnd_xpm[] = {
"16 16 7 1",
" 	c None",
".	c #1C8C00",
"+	c #00FF00",
"@	c #E0FFE0",
"#	c #9B0000",
"$	c #FF2B2B",
"%	c #FFFFFF",
"     ... ...    ",
"    .+@@.+@@.   ",
"    .@++.@++.   ",
"  ...@##.##+... ",
" .+@@#$$#$$#@@@.",
" .@+#$%$$$%$#++.",
" .@+#$$%$%$$#++.",
"  ...#$$%$$#... ",
" .+@#$$%$%$$#@@.",
" .@+#$%$$$%$#++.",
" .@++#$$#$$#+++.",
"  ...@##.##@... ",
"    .@++.@++.   ",
"    .@++.@++.   ",
"     ... ...    ",
"                "};
