/* XPM */
static char * ffc_xpm[] = {
"16 16 8 1",
" 	c None",
".	c #1C8C00",
"+	c #00FF00",
"@	c #E0FFE0",
"#	c #000000",
"$	c #FFFFFF",
"%	c #FFFF00",
"&	c #000080",
"     ... ...    ",
"    .+@@.+@@.   ",
"    .@++.@++.   ",
"  ...#######... ",
" .+@#$%%%%%%#.@.",
" .@#$%&&%&&%%#+.",
" .@#$%%%%%%%%#+.",
"  .#$%&%%%&%%#. ",
" .+.#$%&&&%%#@@.",
" .@++#$%%%%#+++.",
" .@++..#%#..+++.",
"  ...$+...+@... ",
"    .@++.@++.   ",
"    .@++.@++.   ",
"     ... ...    ",
"                "};
