/* XPM */
static char * na_xpm[] = {
"16 16 11 1",
" 	c None",
".	c #1C8C00",
"+	c #00FF00",
"@	c #E0FFE0",
"#	c #FF0000",
"$	c #FFFFFF",
"%	c #000000",
"&	c #999797",
"*	c #AFAFAF",
"=	c #4F4F4F",
"-	c #D8D8D8",
"     ... ...    ",
"    .+@@.+@@.   ",
"    .@++.@++.   ",
"  ############# ",
" ##$$$$$$$$$$$##",
" #$%$$%$&*$%%$$#",
" #$%%$%$=-%$$%$#",
" #$%$%%$%$%%%%$#",
" #$%$$%-=$%$$%$#",
" #$%$$%*&$%$$%$#",
" ##$$$$$$$$$$$##",
"  ############# ",
"    .@++.@++.   ",
"    .@++.@++.   ",
"     ... ...    ",
"                "};
