/* XPM */
static char * offline_xpm[] = {
"16 16 2 1",
" 	c None",
".	c #D1D3D1",
"     ... ...    ",
"    .   .   .   ",
"    .   .   .   ",
"  ...   .   ... ",
" .   .  .  .   .",
" .    . . .    .",
" .     . .     .",
"  .....   ..... ",
" .     . .     .",
" .    . . .    .",
" .   .  .  .   .",
"  ...   .   ... ",
"    .   .   .   ",
"    .   .   .   ",
"     ... ...    ",
"                "};
