/* XPM */
static char * sysmsg_xpm[] = {
"16 16 13 1",
" 	c None",
".	c #000000",
"+	c #008080",
"@	c #00FCF8",
"#	c #808080",
"$	c #F8FC00",
"%	c #F8FCF8",
"&	c #0000F8",
"*	c #808000",
"=	c #CED4EF",
"-	c #A4B1F4",
";	c #8A99F7",
">	c #AFB6FF",
"       ...      ",
"      ..+.      ",
"      ..@.      ",
"........+.......",
".#$%$%$.&.$%$%$.",
".*%$%$%.+.....%.",
".#$%$%$...====..",
".$%$%$%$.-=.;=;.",
".#....$%.==.....",
".*%$%$%$.-=...%.",
".#...%....====..",
".$%$%$%$%$...==.",
".#*#$#*#...#.==.",
".........;-..=;.",
"         .>=>;. ",
"          ....  "};
