/* XPM */
static char * url_xpm[] = {
"16 16 11 1",
" 	c None",
".	c #808080",
"+	c #008000",
"@	c #000080",
"#	c #5151A8",
"$	c #00FF00",
"%	c #0000FF",
"&	c #000000",
"*	c #515151",
"=	c #008080",
"-	c #5151FF",
"                ",
"     .+++@#     ",
"   .$+++%%%&#   ",
"  .+++++%@@++*  ",
"  %%++.=%%@+&+  ",
" -%@=.$%@@@@&&* ",
" %+++$++@@&@@@& ",
" +++++++=@@@&&& ",
" +++++&+&@@&&&& ",
" &+&+++&+@&@&&& ",
" @&+&&+&&@&&&&* ",
"  &+&+&&@&&&&&  ",
"  .&&&&&&&&@&*  ",
"   *&+&&&&&&*   ",
"     *&&&&*     ",
"                "};
