/* XPM */
static char * ffc_xpm[] = {
"16 16 9 1",
" 	c None",
".	c #474747",
"+	c #000000",
"@	c #AFAFAF",
"#	c #FFFFFF",
"$	c #939393",
"%	c #822424",
"&	c #D10C0C",
"*	c #FFFF00",
"       .+.@     ",
"      ++++.     ",
"      +#$#+     ",
"  %&& +++++@    ",
" %%%&&&&**+.    ",
" %%%&&*+$++.@   ",
" %%%&*++++++.   ",
"  %&++#+++++.@  ",
"  % +####++++@  ",
"    +######++.  ",
"   ++######$++  ",
"  +*+$#####+++  ",
" +***+$###$***+ ",
" +****+###+****+",
" +****+++++***+ ",
"  +++++    ++.  "};
