/* XPM */
static char * message_xpm[] = {
"16 16 11 1",
" 	c None",
".	c #000000",
"+	c #C1C1C1",
"@	c #FFFFFF",
"#	c #7C7B7B",
"$	c #918F90",
"%	c #84676D",
"&	c #AA0627",
"*	c #E5C5CB",
"=	c #E5002D",
"-	c #A3A3A3",
"                ",
"                ",
" .............. ",
" .++++@@@@@@@@.#",
" .+@@@@+$$%&&@.#",
" .+@@@@@@@*==@.#",
" .@@@@@@+-%&&@.#",
" .@@@@@@@@@@@@.#",
" .@@+.....+@@@.#",
" .@@@@@@@@@@@@.#",
" .@@+....@@@@+.#",
" .@@@@@@@@@@@+.#",
" .@@@@@@@@@+++.#",
" ..............#",
"  ##############",
"                "};
