/* XPM */
static char * na_xpm[] = {
"16 16 12 1",
" 	c None",
".	c #474747",
"+	c #000000",
"@	c #AFAFAF",
"#	c #C4C4C4",
"$	c #939393",
"%	c #D8D8D8",
"&	c #E5E5E5",
"*	c #5B5B5B",
"=	c #7C7C7C",
"-	c #C6C303",
";	c #C0C0C0",
"       .+.@     ",
"      ++++.     ",
"      +#$#+     ",
"      +++++@    ",
"    +++++++++   ",
"    +%&&&&&%++  ",
"    +*&=&&*%+-+ ",
"   ++**=&*%*+-+ ",
"   ++=**&*=*+++ ",
"    +=&*&=&=++  ",
"   ;+%&&&&&&++  ",
"  +-++++++++++  ",
" +---+=###=---+ ",
" +----+###+----+",
" +----+++++---+ ",
"  +++++    ++.  "};
