/* XPM */
static char * occ_xpm[] = {
"16 16 33 1",
" 	c None",
".	c #474747",
"+	c #000000",
"@	c #AFAFAF",
"#	c #FFFFFF",
"$	c #BABABA",
"%	c #393939",
"&	c #A6A6A6",
"*	c #616161",
"=	c #848484",
"-	c #FD2222",
";	c #D90909",
">	c #DCDCDC",
",	c #E9E9E9",
"'	c #E9E9E7",
")	c #D3D3D3",
"!	c #FA1F1F",
"~	c #FFFF00",
"{	c #CF0101",
"]	c #7B7B7B",
"^	c #D10606",
"/	c #E61212",
"(	c #CD0000",
"_	c #B00808",
":	c #CC0000",
"<	c #B10808",
"[	c #F21A1A",
"}	c #FF2323",
"|	c #CE0000",
"1	c #D80808",
"2	c #AF0909",
"3	c #B80505",
"4	c #939393",
"       .+.@     ",
"      ++++.     ",
"      +#$#+     ",
"      %&*=+@    ",
"  ++-;>,,')!++  ",
"  +~+;{])^/+~+  ",
"  +~+;(^_^/+~+  ",
"  ++-;:^<^/[++  ",
"   }-;:^_^/[-@  ",
"    -;|^_^/--.  ",
"   +-1|^2^/--+  ",
"  +~+1:^3^/+++  ",
" +~~~+4#2#4~~~+ ",
" +~~~~+###+~~~~+",
" +~~~~+++++~~~+ ",
"  +++++    ++.  "};
