/* XPM */
static char * offline_xpm[] = {
"16 16 8 1",
" 	c None",
".	c #000000",
"+	c #AFAFAF",
"@	c #5E5E5E",
"#	c #474747",
"$	c #7C7C7C",
"%	c #C4C4C4",
"&	c #C6C303",
"             ...",
"          ... . ",
"           . ...",
"          ...   ",
"      +@@@@+    ",
"     @####@#+   ",
"    @######$#   ",
"    .$....#$#+  ",
"    .$$..#$$.+  ",
"    .%&###%%.#  ",
"   ..%%&&%%$..  ",
"  .&.$%%%%%...  ",
" .&&&.$%%%$&&&. ",
" .&&&&.%%%.&&&&.",
" .&&&&.....&&&. ",
"  .....    ..#  "};
