/* XPM */
static char * online_xpm[] = {
"16 16 7 1",
" 	c None",
".	c #474747",
"+	c #000000",
"@	c #AFAFAF",
"#	c #FFFFFF",
"$	c #939393",
"%	c #FFFF00",
"       .+.@     ",
"      ++++.     ",
"      +#$#+     ",
"      +++++@    ",
"      +%%%+.    ",
"      ++$%+.@   ",
"     +####$+.   ",
"    ++#####+.@  ",
"    +######$+@  ",
"    +#######+.  ",
"   ++######$++  ",
"  +%+$#####+++  ",
" +%%%+$###$%%%+ ",
" +%%%%+###+%%%%+",
" +%%%%+++++%%%+ ",
"  +++++    ++.  "};
