/* XPM */
static char * sms_xpm[] = {
"16 16 44 1",
" 	c None",
".	c #5E5E5E",
"+	c #7EE256",
"@	c #80A572",
"#	c #CACACA",
"$	c #8E8E91",
"%	c #8E8E92",
"&	c #81D061",
"*	c #84C26B",
"=	c #85BD6E",
"-	c #88AD79",
";	c #85BB6F",
">	c #89A47E",
",	c #CBCBCB",
"'	c #999999",
")	c #A0A0A0",
"!	c #C6C6C6",
"~	c #C1C1C1",
"{	c #8E8E8E",
"]	c #FFFFFF",
"^	c #7D7D7D",
"/	c #949494",
"(	c #A2A2A2",
"_	c #989898",
":	c #8E91A0",
"<	c #8F9BD8",
"[	c #939393",
"}	c #BCBCBC",
"|	c #E2E2E2",
"1	c #979797",
"2	c #A9A9A9",
"3	c #8E8F96",
"4	c #AFAFAF",
"5	c #ADADAD",
"6	c #ACACAC",
"7	c #A4A4A4",
"8	c #707070",
"9	c #AEAEAE",
"0	c #C4C4C4",
"a	c #EBEBEB",
"b	c #9B9B9B",
"c	c #B1B1B1",
"d	c #A5A5A5",
"e	c #C0C0C0",
"          ..    ",
"          ..    ",
"     .......    ",
"    .++++++.    ",
"    .+@@+@+.    ",
"  #$%&*=-;>.,')!",
" ~{]]^]]]]]./]](",
" _]:<.].].].]['}",
" |1]].].].].)]]2",
" !3{]4].].].5{]6",
" 7]]8.].].].]]90",
" abc..44.44.{de ",
"    ........    ",
"    .44.4.4.    ",
"    ........    ",
"     ......     "};
