/* XPM */
static char * sysmsg_xpm[] = {
"16 16 10 1",
" 	c None",
".	c #000000",
"+	c #C1C1C1",
"@	c #FFFFFF",
"#	c #7C7B7B",
"$	c #918F90",
"%	c #CED4EF",
"&	c #A4B1F4",
"*	c #8A99F7",
"=	c #AFB6FF",
"                ",
"                ",
" .............. ",
" .++++@@@@@@@@.#",
" .+@@@@+$$.....#",
" .+@@@@@@.%%%%.#",
" .@@@@@@.&%.*%*.",
" .@@@@@@.%%.@...",
" .@@+....&%....#",
" .@@@@@@@.%%%%.#",
" .@@+....@...%%.",
" .@@@@@@...@.%%.",
" .@@@@@@.*&..%*.",
" .........=%=*.#",
"  ########....##",
"                "};
