/* XPM */
static char * delivery_xpm[] = {
"16 16 28 1",
" 	c None",
".	c #E80606",
"+	c #FCE3E3",
"@	c #FFFFFF",
"#	c #E95353",
"$	c #EDEDED",
"%	c #F7ACAC",
"&	c #F49090",
"*	c #F6F6F6",
"=	c #C4C4C4",
"-	c #F8F8F8",
";	c #FDFDFD",
">	c #BDBDBD",
",	c #BBBBBB",
"'	c #F17474",
")	c #F2F2F2",
"!	c #A3A1A1",
"~	c #C79595",
"{	c #E3E3E3",
"]	c #F6AAAA",
"^	c #BABABA",
"/	c #D0B8B8",
"(	c #C49292",
"_	c #ECECEC",
":	c #777777",
"<	c #F9C8C8",
"[	c #E81F1F",
"}	c #D13939",
"                ",
"         .+@    ",
"        ..#$@   ",
"        ..#$@@  ",
"       %..&*=-@ ",
"      @%..;>,-@ ",
"     @@%.'>,)@! ",
"    @@@%.~,{@!  ",
"    @@@].^)@!   ",
"  ! !@@/(_@!    ",
":: !!!<[[@!     ",
" :: !!}..!      ",
"  :: ! .}       ",
"   :: !         ",
"    ::          ",
"     :          "};
