/* XPM */
static char * info_xpm[] = {
"16 16 16 1",
" 	c None",
".	c #184891",
"+	c #1D57AD",
"@	c #3569B6",
"#	c #CCD9EC",
"$	c #81A1D1",
"%	c #2A6CC1",
"&	c #B8CEEA",
"*	c #FFFFFF",
"=	c #CFDEF1",
"-	c #417CC7",
";	c #588CCE",
">	c #719DD5",
",	c #9FBDE3",
"'	c #E6EEF7",
")	c #88ADDC",
"                ",
"    .......     ",
"   .++@#$++.    ",
"  .++%&*=%++.   ",
" .++%%-&-%%++.  ",
" .+%%;>,;%%%+.  ",
" .+%%'**>%%%+.  ",
" .+%%%**%%%%+.  ",
" .+%%;*'%%%%+.  ",
" .+%%>*&%%%%+.  ",
" .++%,*=)-%++.  ",
"  .++;'*,-++.   ",
"   .+++++++.    ",
"    .......     ",
"                ",
"                "};
