/* XPM */
static char * dnd_xpm[] = {
"16 16 128 2",
"  	c None",
". 	c #EEE2E5",
"+ 	c #E3D0D4",
"@ 	c #DBC4C9",
"# 	c #D7BDC3",
"$ 	c #E0CCD1",
"% 	c #F2E9EB",
"& 	c #E1CDD2",
"* 	c #DCC5CA",
"= 	c #D8BFC5",
"- 	c #D5B8BE",
"; 	c #D1B2B9",
"> 	c #CDABB3",
", 	c #C8A5AD",
"' 	c #C6A0A8",
") 	c #EDE1E4",
"! 	c #DCC6CB",
"~ 	c #DAC2C7",
"{ 	c #D5BAC0",
"] 	c #D0B0B7",
"^ 	c #CBA8B0",
"/ 	c #C7A3AB",
"( 	c #C39CA5",
"_ 	c #BF959F",
": 	c #BA8D97",
"< 	c #CBA8AF",
"[ 	c #DAC1C6",
"} 	c #D1B3BA",
"| 	c #C9A6AE",
"1 	c #C299A2",
"2 	c #BD929C",
"3 	c #BC8F99",
"4 	c #BB8E99",
"5 	c #B68691",
"6 	c #B07D89",
"7 	c #CEB2B8",
"8 	c #CFAFB6",
"9 	c #BC909A",
"0 	c #B3818C",
"a 	c #B3808B",
"b 	c #B4838E",
"c 	c #B5848F",
"d 	c #B17E8A",
"e 	c #A67580",
"f 	c #9A6D77",
"g 	c #EEE3E6",
"h 	c #000000",
"i 	c #9B6E78",
"j 	c #8D636C",
"k 	c #B39CA1",
"l 	c #DEC8CD",
"m 	c #BE939C",
"n 	c #B07C88",
"o 	c #815B63",
"p 	c #84676E",
"q 	c #D2B5BC",
"r 	c #C49EA7",
"s 	c #BA8C96",
"t 	c #A2727C",
"u 	c #76525A",
"v 	c #684C52",
"w 	c #CDACB4",
"x 	c #B78791",
"y 	c #AF7C88",
"z 	c #9D6F79",
"A 	c #67484F",
"B 	c #5B4348",
"C 	c #B88993",
"D 	c #B4828D",
"E 	c #AE7B87",
"F 	c #916670",
"G 	c #563D43",
"H 	c #604C51",
"I 	c #E2CFD4",
"J 	c #AD7A86",
"K 	c #A97782",
"L 	c #5C4147",
"M 	c #432F34",
"N 	c #867B7D",
"O 	c #FAF7F7",
"P 	c #AC838C",
"Q 	c #9E6F79",
"R 	c #A1727C",
"S 	c #A5747F",
"T 	c #AA7883",
"U 	c #AC7984",
"V 	c #996C76",
"W 	c #815B64",
"X 	c #61444B",
"Y 	c #422E33",
"Z 	c #352629",
"` 	c #D3D0D1",
" .	c #D8C9CC",
"..	c #8A616A",
"+.	c #886069",
"@.	c #8E646E",
"#.	c #936771",
"$.	c #956973",
"%.	c #926771",
"&.	c #896069",
"*.	c #76535A",
"=.	c #3F2C31",
"-.	c #2C2023",
";.	c #827B7D",
">.	c #B8A4A9",
",.	c #745159",
"'.	c #704E56",
").	c #6F4E56",
"!.	c #6A4A51",
"~.	c #5D4147",
"{.	c #4C353A",
"].	c #37272B",
"^.	c #2B1F22",
"/.	c #62585B",
"(.	c #BDB0B3",
"_.	c #684F55",
":.	c #51393E",
"<.	c #443035",
"[.	c #39282C",
"}.	c #2F2225",
"|.	c #81797B",
"1.	c #9C9092",
"2.	c #5E5053",
"3.	c #3D2F32",
"4.	c #34282A",
"5.	c #473B3E",
"6.	c #797173",
"7.	c #CBC8C9",
"          . + @ # # $           ",
"      % & * = - ; > , ' @       ",
"    ) ! ~ { ] ^ / ' ( _ : <     ",
"    [ # } | 1 2 3 4 3 : 5 6 7   ",
"  @ - 8 ' 9 5 0 a 0 b c d e f   ",
"g ; h h 3 b h 6 6 h d h h i j k ",
"l ^ h m h d h h n h 6 h e h o p ",
"q r h s h 6 h n h h 6 h t h u v ",
"w m h x h y h n n h y h z h A B ",
"; C h D h y h n n h E h F h G H ",
"I y h h J J h y y h K h h L M N ",
"O P z Q R S T U U e V W X Y Z ` ",
"   ...+...@.#.$.%.&.*.L =.-.;.  ",
"    >.,.'.).'.).!.~.{.].^./.    ",
"      (._.G :.{.<.[.^.}.|.      ",
"          1.2.3.4.5.6.7.        "};
