/* XPM */
static char * invis_xpm[] = {
"16 16 132 2",
"  	c None",
". 	c #EEF0F7",
"+ 	c #E3E7F2",
"@ 	c #DBE1EE",
"# 	c #D7DEED",
"$ 	c #E1E5F1",
"% 	c #F2F4F9",
"& 	c #E1E6F1",
"* 	c #DCE1EF",
"= 	c #D8DEED",
"- 	c #D4DBEB",
"; 	c #D1D7EA",
"> 	c #CDD4E8",
", 	c #C9D1E6",
"' 	c #C6CEE5",
") 	c #EDF0F6",
"! 	c #DCE2EF",
"~ 	c #DADFEE",
"{ 	c #D6DBEB",
"] 	c #D0D7E9",
"^ 	c #CBD3E7",
"/ 	c #C8D0E5",
"( 	c #C6CFE5",
"_ 	c #C4CCE3",
": 	c #C0C9E2",
"< 	c #BAC5DF",
"[ 	c #D7DDED",
"} 	c #D2D8EA",
"| 	c #C9D2E6",
"1 	c #C2CBE3",
"2 	c #BEC7E1",
"3 	c #BCC6E0",
"4 	c #BCC5E0",
"5 	c #B6C1DE",
"6 	c #B1BCDB",
"7 	c #D1D7E7",
"8 	c #CFD6E9",
"9 	c #BDC7E0",
"0 	c #B4BFDC",
"a 	c #B3BEDC",
"b 	c #B5C0DC",
"c 	c #B5C0DD",
"d 	c #B2BDDB",
"e 	c #ADB8D4",
"f 	c #A9B2CC",
"g 	c #EEF1F7",
"h 	c #D1D8EA",
"i 	c #CED5E8",
"j 	c #AEB9D7",
"k 	c #A9B3CE",
"l 	c #A3ABC4",
"m 	c #C4C9D7",
"n 	c #DEE3F0",
"o 	c #C7CFE5",
"p 	c #BFC8E1",
"q 	c #B1BCDA",
"r 	c #A5AFC8",
"s 	c #9EA6BD",
"t 	c #A6ADBD",
"u 	c #D3DAEA",
"v 	c #C5CEE4",
"w 	c #C1CAE2",
"x 	c #BAC4DF",
"y 	c #B0BBDA",
"z 	c #ABB5D2",
"A 	c #9AA1B6",
"B 	c #969DAD",
"C 	c #CED4E8",
"D 	c #B7C1DE",
"E 	c #B2BEDB",
"F 	c #AFBAD8",
"G 	c #A9B4CF",
"H 	c #9EA7BD",
"I 	c #949BAD",
"J 	c #9197A5",
"K 	c #B8C3DE",
"L 	c #ADB8D5",
"M 	c #A5AEC7",
"N 	c #98A0B4",
"O 	c #8E93A2",
"P 	c #979BA6",
"Q 	c #E2E7F2",
"R 	c #B0BBD9",
"S 	c #AEB9D6",
"T 	c #A8B2CE",
"U 	c #9DA5BC",
"V 	c #9096A6",
"W 	c #868B96",
"X 	c #B2B5BB",
"Y 	c #FAFAFC",
"Z 	c #B5BFD6",
"` 	c #ABB5D1",
" .	c #ACB7D4",
"..	c #A7B2CC",
"+.	c #9298A9",
"@.	c #858A96",
"#.	c #81848D",
"$.	c #E3E4E6",
"%.	c #DFE2EB",
"&.	c #A2ABC3",
"*.	c #A1AAC1",
"=.	c #A3ADC5",
"-.	c #A6B0C9",
";.	c #A5AEC8",
">.	c #A1AAC2",
",.	c #9AA2B6",
"'.	c #848994",
").	c #7D8088",
"!.	c #B2B4B8",
"~.	c #C9CEDA",
"{.	c #99A1B5",
"].	c #979FB2",
"^.	c #979EB2",
"/.	c #959CAE",
"(.	c #898E9B",
"_.	c #81858F",
":.	c #7D8087",
"<.	c #9EA1A6",
"[.	c #D0D3DB",
"}.	c #989EAD",
"|.	c #8B909F",
"1.	c #878B97",
"2.	c #828690",
"3.	c #7F8189",
"4.	c #B1B3B8",
"5.	c #BEC1C8",
"6.	c #999DA5",
"7.	c #868992",
"8.	c #82858C",
"9.	c #8E9097",
"0.	c #ADAEB3",
"a.	c #DFE0E2",
"          . + @ # # $           ",
"      % & * = - ; > , ' @       ",
"    ) ! ~ { ] ^ / ( _ : < ^     ",
"    ~ [ } | 1 2 3 4 3 < 5 6 7   ",
"  @ - 8 ' 9 5 0 a 0 b c d e f   ",
"g h i ( 3 b d 6 6 6 d d j k l m ",
"n ^ o p 5 d 6 6 6 q 6 q e r s t ",
"u v w x 0 6 6 6 6 6 6 y z l A B ",
"C p 3 D E q 6 6 6 6 q F G H I J ",
"h K 5 0 d q q 6 6 q y L M N O P ",
"Q q y y R R q q q y S T U V W X ",
"Y Z G G `  .j F F e ..H +.@.#.$.",
"  %.&.*.&.=.r -.;.>.,.V '.).!.  ",
"    ~.{.].^.].^./.V (._.:.<.    ",
"      [.}.O |.(.1.2.:.3.4.      ",
"          5.6.7.8.9.0.a.        "};
