/* XPM */
static char * dnd_xpm[] = {
"16 16 135 2",
"  	c None",
". 	c #EEE2E5",
"+ 	c #E3D0D4",
"@ 	c #DBC4C9",
"# 	c #D7BDC3",
"$ 	c #E0CCD1",
"% 	c #F2E9EB",
"& 	c #E1CDD2",
"* 	c #DCC5CA",
"= 	c #D8BFC5",
"- 	c #D5B8BE",
"; 	c #D1B2B9",
"> 	c #CDABB3",
", 	c #C8A5AD",
"' 	c #C6A0A8",
") 	c #EDE1E4",
"! 	c #DCC6CB",
"~ 	c #DAC2C7",
"{ 	c #D5BAC0",
"] 	c #D0B0B7",
"^ 	c #CBA8B0",
"/ 	c #C7A3AB",
"( 	c #C39CA5",
"_ 	c #BF959F",
": 	c #BA8D97",
"< 	c #CBA8AF",
"[ 	c #DAC1C6",
"} 	c #D1B3BA",
"| 	c #C9A6AE",
"1 	c #C299A2",
"2 	c #BD929C",
"3 	c #BC8F99",
"4 	c #BB8E99",
"5 	c #B68691",
"6 	c #B07D89",
"7 	c #CEB2B8",
"8 	c #CFAFB6",
"9 	c #BC909A",
"0 	c #B3818C",
"a 	c #B3808B",
"b 	c #B4838E",
"c 	c #B5848F",
"d 	c #B17E8A",
"e 	c #A67580",
"f 	c #9A6D77",
"g 	c #EEE3E6",
"h 	c #CDADB5",
"i 	c #AA7883",
"j 	c #9B6E78",
"k 	c #8D636C",
"l 	c #B39CA1",
"m 	c #DEC8CD",
"n 	c #C7A2AA",
"o 	c #BE939C",
"p 	c #B07C88",
"q 	c #AF7C88",
"r 	c #936771",
"s 	c #815B63",
"t 	c #84676E",
"u 	c #D2B5BC",
"v 	c #C49EA7",
"w 	c #C198A1",
"x 	c #BA8C96",
"y 	c #AE7B87",
"z 	c #A2727C",
"A 	c #76525A",
"B 	c #684C52",
"C 	c #CDACB4",
"D 	c #B78791",
"E 	c #B27F8A",
"F 	c #AC7984",
"G 	c #9D6F79",
"H 	c #815B64",
"I 	c #67484F",
"J 	c #5B4348",
"K 	c #B88993",
"L 	c #B4828D",
"M 	c #A77681",
"N 	c #916670",
"O 	c #725058",
"P 	c #563D43",
"Q 	c #604C51",
"R 	c #E2CFD4",
"S 	c #AD7A86",
"T 	c #A97782",
"U 	c #9B6D77",
"V 	c #7F5961",
"W 	c #5C4147",
"X 	c #432F34",
"Y 	c #867B7D",
"Z 	c #FAF7F7",
"` 	c #AC838C",
" .	c #9E6F79",
"..	c #A1727C",
"+.	c #A5747F",
"@.	c #996C76",
"#.	c #61444B",
"$.	c #422E33",
"%.	c #352629",
"&.	c #D3D0D1",
"*.	c #D8C9CC",
"=.	c #8A616A",
"-.	c #886069",
";.	c #8E646E",
">.	c #956973",
",.	c #926771",
"'.	c #896069",
").	c #76535A",
"!.	c #3F2C31",
"~.	c #2C2023",
"{.	c #827B7D",
"].	c #B8A4A9",
"^.	c #745159",
"/.	c #704E56",
"(.	c #6F4E56",
"_.	c #6A4A51",
":.	c #5D4147",
"<.	c #4C353A",
"[.	c #37272B",
"}.	c #2B1F22",
"|.	c #62585B",
"1.	c #BDB0B3",
"2.	c #684F55",
"3.	c #51393E",
"4.	c #443035",
"5.	c #39282C",
"6.	c #2F2225",
"7.	c #81797B",
"8.	c #9C9092",
"9.	c #5E5053",
"0.	c #3D2F32",
"a.	c #34282A",
"b.	c #473B3E",
"c.	c #797173",
"d.	c #CBC8C9",
"          . + @ # # $           ",
"      % & * = - ; > , ' @       ",
"    ) ! ~ { ] ^ / ' ( _ : <     ",
"    [ # } | 1 2 3 4 3 : 5 6 7   ",
"  @ - 8 ' 9 5 0 a 0 b c d e f   ",
"g ; h ' 3 b d 6 6 6 d d i j k l ",
"m ^ n o 5 d 6 p p q 6 q e r s t ",
"u v w x 0 6 p p p p 6 y z k A B ",
"C o 3 D E q p p p p q F G H I J ",
"; K 5 L d q q p p q y M N O P Q ",
"R q y y S S q q q y T U V W X Y ",
"Z ` G  ...+.i F F e @.H #.$.%.&.",
"  *.=.-.=.;.r >.,.'.).W !.~.{.  ",
"    ].^./.(./.(._.:.<.[.}.|.    ",
"      1.2.P 3.<.4.5.}.6.7.      ",
"          8.9.0.a.b.c.d.        "};
