/* XPM */
static char * offline_xpm[] = {
"16 16 106 2",
"  	c None",
". 	c #EBEBF1",
"+ 	c #DEDEE7",
"@ 	c #D5D5E0",
"# 	c #D0D0DD",
"$ 	c #DCDCE5",
"% 	c #F0F0F4",
"& 	c #DDDDE5",
"* 	c #D6D6E1",
"= 	c #D1D1DE",
"- 	c #CDCDDA",
"; 	c #C8C8D6",
"> 	c #C4C4D2",
", 	c #BEBECD",
"' 	c #BBBBCA",
") 	c #EAEAF0",
"! 	c #D3D3DE",
"~ 	c #CECEDA",
"{ 	c #C7C7D5",
"] 	c #C1C1CF",
"^ 	c #BDBDCB",
"/ 	c #B8B8C7",
"( 	c #B3B3C3",
"_ 	c #ACACBD",
": 	c #D0D0DC",
"< 	c #C9C9D7",
"[ 	c #BFBFCE",
"} 	c #B6B6C6",
"| 	c #B0B0C0",
"1 	c #AEAEBF",
"2 	c #ADADBE",
"3 	c #A7A7B9",
"4 	c #9F9FB1",
"5 	c #C6C6D3",
"6 	c #AFAFC0",
"7 	c #A3A3B5",
"8 	c #A2A2B4",
"9 	c #A4A4B6",
"0 	c #A5A5B7",
"a 	c #A1A1B2",
"b 	c #9797A9",
"c 	c #8D8D9F",
"d 	c #C5C5D3",
"e 	c #9A9AAC",
"f 	c #8E8EA0",
"g 	c #818193",
"h 	c #D8D8E3",
"i 	c #B1B1C1",
"j 	c #9E9EB0",
"k 	c #878799",
"l 	c #777789",
"m 	c #7E7E91",
"n 	c #CACAD7",
"o 	c #B9B9C9",
"p 	c #B5B5C5",
"q 	c #ABABBC",
"r 	c #9D9DAF",
"s 	c #9292A5",
"t 	c #6C6C7E",
"u 	c #626273",
"v 	c #A1A1B3",
"w 	c #9C9CAD",
"x 	c #8F8FA1",
"y 	c #787889",
"z 	c #606071",
"A 	c #575767",
"B 	c #A9A9BA",
"C 	c #9797AA",
"D 	c #858597",
"E 	c #6A6A7C",
"F 	c #515161",
"G 	c #5F5F6F",
"H 	c #9C9CAE",
"I 	c #747486",
"J 	c #40404D",
"K 	c #8A8A9C",
"L 	c #F8F8FA",
"M 	c #9090A2",
"N 	c #9696A8",
"O 	c #8C8C9E",
"P 	c #5B5B6B",
"Q 	c #3F3F4C",
"R 	c #33333E",
"S 	c #D7D7E2",
"T 	c #7D7D8F",
"U 	c #838395",
"V 	c #89899B",
"W 	c #868698",
"X 	c #7E7E90",
"Y 	c #6D6D7F",
"Z 	c #3B3B48",
"` 	c #2A2A33",
" .	c #88889A",
"..	c #B7B7C7",
"+.	c #6B6B7D",
"@.	c #68687A",
"#.	c #676779",
"$.	c #585868",
"%.	c #484856",
"&.	c #34343F",
"*.	c #292932",
"=.	c #666678",
"-.	c #646475",
";.	c #4C4C5A",
">.	c #363642",
",.	c #2E2E38",
"          . + @ # # $           ",
"      % & * = - ; > , ' @       ",
"    ) * ! ~ { ] ^ ' / ( _ ]     ",
"    ! : < [ } | 1 2 1 _ 3 4 {   ",
"  @ - 5 ' 6 3 7 8 8 9 0 a b c   ",
". ; d ' 1 9 a 4 4 4 a a e f g | ",
"h ] ^ i 3 a 4 4 4 j 4 j b k l m ",
"n o p q 7 4 4 4 4 4 4 r s g t u ",
"> i 1 3 v j 4 4 4 4 j w x y z A ",
"; B 3 7 a j j 4 4 j r C D E F G ",
"+ j r r H H j j j r e c I A J K ",
"L a x M s N e w w b O y P Q R S ",
"  * m T m U k V W X Y A Z `  .  ",
"    ..+.@.#.@.#.u $.%.&.*.=.    ",
"      , -.F ;.%.J >.*.,.W       ",
"          j G Z R %.X :         "};
