/* XPM */
static char * D:\kit\sysmsg_xpm[] = {
"16 16 128 2",
"  	c None",
". 	c #E2E6F2",
"+ 	c #CFD6E9",
"@ 	c #C2CBE3",
"# 	c #BBC6E0",
"$ 	c #CBD3E7",
"% 	c #E9ECF5",
"& 	c #CCD4E8",
"* 	c #C3CCE4",
"= 	c #BDC7E1",
"- 	c #F6FF00",
"; 	c #A9B6D8",
"> 	c #A2B0D4",
", 	c #9DABD2",
"' 	c #E1E5F1",
") 	c #C4CDE4",
"! 	c #C0C9E2",
"~ 	c #B8C2DE",
"{ 	c #99A8D0",
"] 	c #92A2CD",
"^ 	c #899BC9",
"/ 	c #A5B3D6",
"( 	c #BFC9E2",
"_ 	c #BBC5E0",
": 	c #B1BDDB",
"< 	c #A3B1D5",
"[ 	c #000000",
"} 	c #8295C6",
"| 	c #798CC1",
"1 	c #B0BBD7",
"2 	c #C2CCE3",
"3 	c #B6C1DE",
"4 	c #ADB9D9",
"5 	c #8D9ECA",
"6 	c #8093C5",
"7 	c #7A8EC2",
"8 	c #7184B6",
"9 	c #6A7BA8",
"0 	c #E3E7F2",
"a 	c #B0BCDB",
"b 	c #ABB7D8",
"c 	c #9DACD2",
"d 	c #8C9DCA",
"e 	c #7F92C4",
"f 	c #7487BA",
"g 	c #6A7CAA",
"h 	c #606F9A",
"i 	c #9AA3BB",
"j 	c #C7CFE5",
"k 	c #A6B3D6",
"l 	c #9FADD3",
"m 	c #90A1CC",
"n 	c #788BC0",
"o 	c #6475A1",
"p 	c #58668D",
"q 	c #65718E",
"r 	c #B3BFDC",
"s 	c #9BAAD1",
"t 	c #95A4CE",
"u 	c #889AC9",
"v 	c #7D91C3",
"w 	c #778ABF",
"x 	c #6E80B1",
"y 	c #505D81",
"z 	c #4A5571",
"A 	c #AAB6D8",
"B 	c #8395C6",
"C 	c #7B8FC2",
"D 	c #788CC1",
"E 	c #7589BC",
"F 	c #6B7DAC",
"G 	c #58678E",
"H 	c #465271",
"I 	c #414B63",
"J 	c #8597C7",
"K 	c #7E91C4",
"L 	c #7A8DC2",
"M 	c #7285B7",
"N 	c #63739F",
"O 	c #4E5B7D",
"P 	c #3B455F",
"Q 	c #4C5366",
"R 	c #CED6E9",
"S 	c #768ABE",
"T 	c #7387B9",
"U 	c #697BAA",
"V 	c #56648B",
"W 	c #3F4A65",
"X 	c #2E364A",
"Y 	c #7A7F8A",
"Z 	c #F7F8FB",
"` 	c #8090B9",
" .	c #6B7DAD",
"..	c #6E80B0",
"+.	c #7083B5",
"@.	c #687AA8",
"#.	c #424D6B",
"$.	c #2D3549",
"%.	c #252B3A",
"&.	c #D0D1D5",
"*.	c #C8CEDD",
"=.	c #5E6E97",
"-.	c #5D6C95",
";.	c #61719C",
">.	c #505E81",
",.	c #2B3346",
"'.	c #1F2431",
").	c #7B7E85",
"!.	c #A3ABBF",
"~.	c #4F5C7F",
"{.	c #4C597B",
"].	c #4C587A",
"^.	c #262C3D",
"/.	c #1E2330",
"(.	c #585C66",
"_.	c #AFB4C2",
":.	c #4D5771",
"<.	c #374059",
"[.	c #272E3F",
"}.	c #222633",
"|.	c #797C84",
"1.	c #8F94A0",
"2.	c #4F5563",
"3.	c #2E3442",
"4.	c #272C38",
"5.	c #3B3F4B",
"6.	c #71747C",
"7.	c #C8CACD",
"          . + @ # # $           ",
"      % & * = - - ; > , @       ",
"    ' ) ! ~ - - - - { ] ^ /     ",
"    ( _ : < - - - - [ ^ } | 1   ",
"  2 3 4 , 5 - - - - [ 6 7 8 9   ",
"0 a b c d e - - - - [ 7 f g h i ",
"j k l m } 7 - - - - [ n 8 o p q ",
"r s t u v | - - - - [ w x h y z ",
"A m d B C n D - - [ [ E F G H I ",
"a J } K L n n D [ [ w M N O P Q ",
"R n w w S S n n n w T U V W X Y ",
"Z ` F  ...+.f - - 8 @.G #.$.%.&.",
"  *.=.-.=.;.- - - - >.W ,.'.).  ",
"    !.~.{.].- - - - [ ^./.(.    ",
"      _.:.P <.- - [./.}.|.      ",
"          1.2.3.4.5.6.7.        "};
