/* XPM */
static char * away_xpm[] = {
"15 15 2 1",
" 	c None",
".	c #AAAAAA",
"               ",
"  ...........  ",
" .           . ",
" .           . ",
" .           . ",
" .           . ",
" .           . ",
" .           . ",
" .           . ",
" .           . ",
"  ...........  ",
" . . . . . . . ",
" .  . . . .  . ",
"  ...........  ",
"               "};
