/* XPM */
static char * chat_xpm[] = {
"16 16 5 1",
" 	c None",
".	c #82826B",
"+	c #FFFEFC",
"@	c #FFFDF4",
"#	c #F2F0E6",
"                ",
"                ",
"    ........    ",
"   .++++++++.   ",
"  .+...++..++.  ",
"  .+++++++++++. ",
" .++..+...+..@. ",
" .++++++++@@@@. ",
" .+......@..@#. ",
" .+@@@@@@@@###. ",
"  .@@....####.  ",
"   .@@######.   ",
"  .#####....    ",
" .......        ",
"                ",
"                "};
