/* XPM */
static char * dnd_xpm[] = {
"15 15 5 1",
" 	c None",
".	c #000000",
"+	c #FF0000",
"@	c #FFFFFF",
"#	c #FFCCCC",
" ..   .        ",
".++. .+......  ",
" .++.++.@@@@@. ",
"  .+++.#####@. ",
" .+++.######@. ",
".++.++.#####@. ",
".+.#.++.####@. ",
" .@##..#####@. ",
" .@#########@. ",
" .@@@@@@@@@@@. ",
"  ...........  ",
" .@.@.@.@.@.@. ",
" .@@.@.@.@.@@. ",
"  ...........  ",
"               "};
