/* XPM */
static char * ffc_xpm[] = {
"15 15 5 1",
" 	c None",
".	c #000000",
"+	c #FFFDB7",
"@	c #FFFFFF",
"#	c #CCFFCC",
"  .....        ",
" .+++++. ....  ",
".++.+.++.@@@@. ",
".+++++++.###@. ",
".+.+++.+.###@. ",
".++...++.###@. ",
" .+++++.####@. ",
"  ....+.####@. ",
" .@###..####@. ",
" .@@@@@@@@@@@. ",
"  ...........  ",
" .@.@.@.@.@.@. ",
" .@@.@.@.@.@@. ",
"  ...........  ",
"               "};
