/* XPM */
static char * invisible_xpm[] = {
"15 15 5 1",
" 	c None",
".	c #AAAAAA",
"+	c #707070",
"@	c #FFFFFF",
"#	c #CCFFCC",
"               ",
"  ...........  ",
"               ",
" +@#########@+ ",
"               ",
" +@#########@+ ",
"               ",
" +@#########@+ ",
"               ",
" +@#########@+ ",
"               ",
" + + + + + + + ",
"               ",
"  ...........  ",
"               "};
