/* XPM */
static char * message_xpm[] = {
"16 16 7 1",
" 	c None",
".	c #82826B",
"+	c #FFFEFC",
"@	c #CECDC6",
"#	c #FFFDF4",
"$	c #F9F8EF",
"%	c #F2F0E6",
"    .........   ",
"   ..+++++++.   ",
"  .@.+...+.+.   ",
" .@@.+++++++.   ",
".....+..+..#.   ",
".+++++++++##.   ",
".+.....+.+.#.   ",
".++++++++##$.   ",
".+..+....#.$.   ",
".+++++####$$.   ",
".+...#..$..$.   ",
".######$$$$$.   ",
".#.....$.$%%.   ",
".$$$$%%%%%%%.   ",
".%%%%%%%%%%%.   ",
".............   "};
