/* XPM */
static char * occ_xpm[] = {
"15 15 5 1",
" 	c None",
".	c #000000",
"+	c #AAAAAA",
"@	c #FFFFFF",
"#	c #FFCCCC",
"   ...         ",
"  .+++. .....  ",
" .++.++.@@@@@. ",
".++.#.++.###@. ",
".+.###.+.###@. ",
".++.#.++.###@. ",
" .++.++.####@. ",
"  .+++.#####@. ",
" .@...######@. ",
" .@@@@@@@@@@@. ",
"  ...........  ",
" .@.@.@.@.@.@. ",
" .@@.@.@.@.@@. ",
"  ...........  ",
"               "};
