/* XPM */
static char * sysmsg_xpm[] = {
"16 16 12 1",
" 	c None",
".	c #82826B",
"+	c #FFFEFC",
"@	c #CECDC6",
"#	c #FFFDF4",
"$	c #000000",
"%	c #CED4EF",
"&	c #A4B1F4",
"*	c #8A99F7",
"=	c #F9F8EF",
"-	c #F2F0E6",
";	c #AFB6FF",
"    .........   ",
"   ..+++++++.   ",
"  .@.+...+.+.   ",
" .@@.+++++++.   ",
".....+..+..#.   ",
".+++++++++$$$$  ",
".+.....+.$%%%%$ ",
".+++++++$&%$*%*$",
".+..+...$%%$.$$$",
".+++++##$&%$$$  ",
".+...#..=$%%%%$ ",
".######===$$$%%$",
".#.....=$$$-$%%$",
".====---$*&$$%*$",
".--------$;%;*$ ",
"..........$$$$  "};
