/* XPM */
static char * url_xpm[] = {
"16 16 12 1",
" 	c None",
".	c #82826B",
"+	c #FFFEFC",
"@	c #CECDC6",
"#	c #2A2AAE",
"$	c #0000D1",
"%	c #B2B2B2",
"&	c #008922",
"*	c #FFFDF4",
"=	c #F9F8EF",
"-	c #3F3F3F",
";	c #F2F0E6",
"    ..........  ",
"   ..++++++++.  ",
"  .@.#$#%++++.  ",
" .@@.&$$$%+++.  ",
".....&&$&#+++.  ",
".++$$$&$&$++*.  ",
".++#$&&$$#+**.  ",
".++%$$&$$%***.  ",
".+++%#$#%+***.  ",
".**********==.  ",
".-*-*---+-===.  ",
".-*-*--==-===.  ",
".---+-=-=---;.  ",
".=====;;;;;;;.  ",
".;;;;;;;;;;;;.  ",
"..............  "};
