/* XPM */
static char * dnd_xpm[] = {
"16 16 34 1",
" 	c None",
".	c #F4DCDF",
"+	c #B5001B",
"@	c #F2A7B2",
"#	c #000000",
"$	c #1D0B0D",
"%	c #43191F",
"&	c #672B34",
"*	c #3A141A",
"=	c #69242F",
"-	c #702A35",
";	c #E20022",
">	c #762936",
",	c #E41937",
"'	c #F18494",
")	c #F5AFB9",
"!	c #782C39",
"~	c #FEFDFD",
"{	c #F6B7C0",
"]	c #FEFCFC",
"^	c #F08797",
"/	c #7F2C39",
"(	c #F39EAA",
"_	c #FFFFFF",
":	c #EF7A8C",
"<	c #872B39",
"[	c #EE798B",
"}	c #FADADE",
"|	c #E20627",
"1	c #FDF6F7",
"2	c #ED6478",
"3	c #F295A3",
"4	c #E94059",
"5	c #E51E3C",
"   ..++++++++   ",
"   .@.###$%&+   ",
"   .@@..#*=-+   ",
"   .;;;;..=>+   ",
"   ,';;);.!!+   ",
"   ,~{)]^;//+   ",
"   ;(_{:;;<<+   ",
"   ;[{_}|;<<+   ",
"   ;1{2_3;<<+   ",
"   .;;;45.<<+   ",
"   .@;;;@.<<+   ",
"   ..@@@@.<<+   ",
"    ..@@@.+++   ",
"      ..@.      ",
"        ..      ",
"                "};
