/* XPM */
static char * occ_xpm[] = {
"16 16 37 1",
" 	c None",
".	c #D7A7E8",
"+	c #753789",
"@	c #873AA1",
"#	c #953CB3",
"$	c #C068DD",
"%	c #000000",
"&	c #2E0C39",
"*	c #0B030E",
"=	c #0F0512",
"-	c #76660F",
";	c #78670F",
">	c #98880B",
",	c #D4BA17",
"'	c #C5B406",
")	c #FFEE00",
"!	c #CDAC31",
"~	c #EACB1E",
"{	c #F9E507",
"]	c #D4B22D",
"^	c #AFAFAF",
"/	c #ECCD1E",
"(	c #ECCE1B",
"_	c #E7C721",
":	c #F4DB0F",
"<	c #FFFFFF",
"[	c #F9E409",
"}	c #FEED00",
"|	c #E6C81E",
"1	c #EED119",
"2	c #FEEC01",
"3	c #EAD114",
"4	c #FBE805",
"5	c #FEEC00",
"6	c #F6DF0C",
"7	c #F2DD0B",
"8	c #EED512",
"   ..+++++@#+   ",
"   .$.%%&**=+   ",
"   .$$..-;>,+   ",
"   .$$$$..')!   ",
"   .$%$$$.~{]   ",
"   .%^%$$./(_:  ",
"   .%<%$$.[}|1  ",
"   .%<%$$.2/34  ",
"   .%<%$$.2)5)  ",
"   .%<%%%%%67)  ",
"   .%<<<^%<%8   ",
"   .%<%%<^%<%   ",
"    %<%<<%<^%   ",
"    %<<%%%<%    ",
"    %%^<<<^%    ",
"     %^<<<^%    "};
