/* XPM */
static char * offline_xpm[] = {
"16 16 10 1",
" 	c None",
".	c #FFA8A8",
"+	c #FF0000",
"@	c #FF5454",
"#	c #FF1313",
"$	c #FF4343",
"%	c #FFA5A5",
"&	c #FF6767",
"*	c #FF1010",
"=	c #FF6E6E",
"   ..........   ",
"   .++++++++.   ",
"   .++++++++.   ",
"   .++++++++.   ",
"   .++++++++.   ",
"   .++++++++.   ",
"   .++++++@#.   ",
"   .+++++$%&.   ",
"   .+++++*=#.   ",
"   .++++++++.   ",
"   .++++++++.   ",
"   .++++++++.   ",
"   ..........   ",
"                ",
"                ",
"                "};
